<?xml version="1.0" encoding="UTF-8"?>
<svg xmlns="http://www.w3.org/2000/svg" width="800" height="230"
     viewBox="0 0 800 230" role="img" aria-label="helm-oci-registry">
  <rect width="100%" height="100%" fill="#fffef8"/>
  <text x="400.0" y="28.0" text-anchor="middle" font-family="Virgil, Segoe Print, Comic Sans MS, cursive" font-size="18" font-weight="700" fill="#1e1e1e">OCI chart registry workflow</text>

  <path d="M 43.4,82.2 L 152.1,82.9 Q 162.1,82.9 162.1,92.9 L 163.8,148.4 Q 163.8,158.4 153.8,158.4 L 43.2,158.7 Q 33.2,158.7 33.2,148.7 L 33.4,92.2 Q 33.4,82.2 43.4,82.2 Z" fill="#00000022" stroke="none"/>
  <path d="M 40.4,81.0 L 149.2,79.6 Q 159.2,79.6 159.2,89.6 L 160.8,145.6 Q 160.8,155.6 150.8,155.6 L 40.0,156.0 Q 30.0,156.0 30.0,146.0 L 30.4,91.0 Q 30.4,81.0 40.4,81.0 Z" fill="#a5d8ff" stroke="#1971c2" stroke-width="2"/>
  
  <text x="95.0" y="111.5" text-anchor="middle"
        font-family="Virgil, Segoe Print, Comic Sans MS, cursive"
        font-size="14" font-weight="700" fill="#1e1e1e">Package</text>
  <text x="95.0" y="131.5" text-anchor="middle" font-family="Virgil, Segoe Print, Comic Sans MS, cursive" font-size="12" fill="#1e1e1e">helm package</text>


  <path d="M 160.0,118.0 L 167.6,117.8 L 172.4,116.9 L 180.0,118.0" stroke="#1e1e1e" stroke-width="2" fill="none"/>
  <path d="M 180.0,118.0 L 173.1,122.0 M 180.0,118.0 L 173.1,114.0"
        stroke="#1e1e1e" stroke-width="2" fill="none"/>


  <path d="M 192.5,83.1 L 302.3,84.0 Q 312.3,84.0 312.3,94.0 L 312.8,148.2 Q 312.8,158.2 302.8,158.2 L 193.0,157.9 Q 183.0,157.9 183.0,147.9 L 182.5,93.1 Q 182.5,83.1 192.5,83.1 Z" fill="#00000022" stroke="none"/>
  <path d="M 190.1,79.6 L 301.0,79.1 Q 311.0,79.1 311.0,89.1 L 310.4,144.3 Q 310.4,154.3 300.4,154.3 L 189.0,154.4 Q 179.0,154.4 179.0,144.4 L 180.1,89.6 Q 180.1,79.6 190.1,79.6 Z" fill="#b2f2bb" stroke="#2f9e44" stroke-width="2"/>
  
  <text x="245.0" y="111.5" text-anchor="middle"
        font-family="Virgil, Segoe Print, Comic Sans MS, cursive"
        font-size="14" font-weight="700" fill="#1e1e1e">Login</text>
  <text x="245.0" y="131.5" text-anchor="middle" font-family="Virgil, Segoe Print, Comic Sans MS, cursive" font-size="12" fill="#1e1e1e">helm registry</text>


  <path d="M 310.0,118.0 L 317.1,117.5 L 324.4,118.9 L 330.0,118.0" stroke="#1e1e1e" stroke-width="2" fill="none"/>
  <path d="M 330.0,118.0 L 323.1,122.0 M 330.0,118.0 L 323.1,114.0"
        stroke="#1e1e1e" stroke-width="2" fill="none"/>


  <path d="M 343.5,82.1 L 452.3,83.6 Q 462.3,83.6 462.3,93.6 L 462.7,147.6 Q 462.7,157.6 452.7,157.6 L 342.0,158.3 Q 332.0,158.3 332.0,148.3 L 333.5,92.1 Q 333.5,82.1 343.5,82.1 Z" fill="#00000022" stroke="none"/>
  <path d="M 340.8,79.8 L 450.8,80.6 Q 460.8,80.6 460.8,90.6 L 459.7,145.0 Q 459.7,155.0 449.7,155.0 L 340.3,154.8 Q 330.3,154.8 330.3,144.8 L 330.8,89.8 Q 330.8,79.8 340.8,79.8 Z" fill="#ffd8a8" stroke="#e8590c" stroke-width="2"/>
  
  <text x="395.0" y="111.5" text-anchor="middle"
        font-family="Virgil, Segoe Print, Comic Sans MS, cursive"
        font-size="14" font-weight="700" fill="#1e1e1e">Push</text>
  <text x="395.0" y="131.5" text-anchor="middle" font-family="Virgil, Segoe Print, Comic Sans MS, cursive" font-size="12" fill="#1e1e1e">oci://…</text>


  <path d="M 460.0,118.0 L 465.7,117.9 L 473.0,118.3 L 480.0,118.0" stroke="#1e1e1e" stroke-width="2" fill="none"/>
  <path d="M 480.0,118.0 L 473.1,122.0 M 480.0,118.0 L 473.1,114.0"
        stroke="#1e1e1e" stroke-width="2" fill="none"/>


  <path d="M 492.4,82.9 L 603.9,82.0 Q 613.9,82.0 613.9,92.0 L 612.9,147.7 Q 612.9,157.7 602.9,157.7 L 492.8,157.9 Q 482.8,157.9 482.8,147.9 L 482.4,92.9 Q 482.4,82.9 492.4,82.9 Z" fill="#00000022" stroke="none"/>
  <path d="M 490.6,81.0 L 600.4,79.5 Q 610.4,79.5 610.4,89.5 L 609.4,144.7 Q 609.4,154.7 599.4,154.7 L 490.5,154.9 Q 480.5,154.9 480.5,144.9 L 480.6,91.0 Q 480.6,81.0 490.6,81.0 Z" fill="#d0bfff" stroke="#7048e8" stroke-width="2"/>
  
  <text x="545.0" y="111.5" text-anchor="middle"
        font-family="Virgil, Segoe Print, Comic Sans MS, cursive"
        font-size="14" font-weight="700" fill="#1e1e1e">Registry</text>
  <text x="545.0" y="131.5" text-anchor="middle" font-family="Virgil, Segoe Print, Comic Sans MS, cursive" font-size="12" fill="#1e1e1e">GHCR · ECR</text>


  <path d="M 610.0,118.0 L 617.6,119.0 L 624.3,118.9 L 630.0,118.0" stroke="#1e1e1e" stroke-width="2" fill="none"/>
  <path d="M 630.0,118.0 L 623.1,122.0 M 630.0,118.0 L 623.1,114.0"
        stroke="#1e1e1e" stroke-width="2" fill="none"/>


  <path d="M 643.5,82.8 L 753.8,82.5 Q 763.8,82.5 763.8,92.5 L 763.4,147.7 Q 763.4,157.7 753.4,157.7 L 643.6,158.2 Q 633.6,158.2 633.6,148.2 L 633.5,92.8 Q 633.5,82.8 643.5,82.8 Z" fill="#00000022" stroke="none"/>
  <path d="M 639.7,79.9 L 749.7,79.5 Q 759.7,79.5 759.7,89.5 L 759.6,145.4 Q 759.6,155.4 749.6,155.4 L 639.3,154.3 Q 629.3,154.3 629.3,144.3 L 629.7,89.9 Q 629.7,79.9 639.7,79.9 Z" fill="#eebefa" stroke="#9c36b5" stroke-width="2"/>
  
  <text x="695.0" y="111.5" text-anchor="middle"
        font-family="Virgil, Segoe Print, Comic Sans MS, cursive"
        font-size="14" font-weight="700" fill="#1e1e1e">Pull / install</text>
  <text x="695.0" y="131.5" text-anchor="middle" font-family="Virgil, Segoe Print, Comic Sans MS, cursive" font-size="12" fill="#1e1e1e">version tag</text>

<text x="400.0" y="195.0" text-anchor="middle" font-family="Virgil, Segoe Print, Comic Sans MS, cursive" font-size="13" font-weight="400" fill="#1e1e1e">Prefer OCI + immutable chart versions over floating latest</text>
</svg>
